<svg id="BankingCheck" xmlns="http://www.w3.org/2000/svg" xmlns:xlink="http://www.w3.org/1999/xlink" width="48.22mm" height="93mm" viewBox="0 0 136.69 263.62">
  <defs>
    <linearGradient id="Unbenannter_Verlauf_78" data-name="Unbenannter Verlauf 78" x1="3.05" y1="132.64" x2="135.09" y2="132.64" gradientUnits="userSpaceOnUse">
      <stop offset="0" stop-color="#be9a40"/>
      <stop offset="0.05" stop-color="#c8ad4d"/>
      <stop offset="0.11" stop-color="#d1bd59"/>
      <stop offset="0.15" stop-color="#d4c35d"/>
      <stop offset="0.87" stop-color="#d4c55e"/>
      <stop offset="0.92" stop-color="#d2c25c"/>
      <stop offset="0.95" stop-color="#cdb855"/>
      <stop offset="0.98" stop-color="#c5a849"/>
      <stop offset="1" stop-color="#be9a40"/>
    </linearGradient>
    <radialGradient id="Unbenannter_Verlauf_61" data-name="Unbenannter Verlauf 61" cx="128.12" cy="151.48" fx="135.55681727792177" r="30.13" gradientTransform="translate(-216.64 -176.77) scale(2.19 2.19)" gradientUnits="userSpaceOnUse">
      <stop offset="0.02" stop-color="#667fb2"/>
      <stop offset="0.16" stop-color="#5477ac"/>
      <stop offset="0.44" stop-color="#24619d"/>
      <stop offset="0.64" stop-color="#005192"/>
      <stop offset="0.87" stop-color="#123d6a"/>
      <stop offset="1" stop-color="#1a3459"/>
    </radialGradient>
    <radialGradient id="Unbenannter_Verlauf_303" data-name="Unbenannter Verlauf 303" cx="65.15" cy="179.35" fy="144.21853354699743" r="57.9" gradientTransform="translate(-3.2 -27.07) scale(1.12 1.12)" gradientUnits="userSpaceOnUse">
      <stop offset="0.16" stop-color="#fff0db" stop-opacity="0.9"/>
      <stop offset="0.32" stop-color="#e2dad5" stop-opacity="0.67"/>
      <stop offset="0.49" stop-color="#c4c4cf" stop-opacity="0.43"/>
      <stop offset="0.65" stop-color="#acb2ca" stop-opacity="0.25"/>
      <stop offset="0.79" stop-color="#9ba6c7" stop-opacity="0.11"/>
      <stop offset="0.9" stop-color="#919ec5" stop-opacity="0.03"/>
      <stop offset="0.98" stop-color="#8d9bc4" stop-opacity="0"/>
    </radialGradient>
    <linearGradient id="Unbenannter_Verlauf_2" data-name="Unbenannter Verlauf 2" x1="-54.17" y1="108.98" x2="171.71" y2="108.98" gradientUnits="userSpaceOnUse">
      <stop offset="0" stop-color="#70706f"/>
      <stop offset="0.08" stop-color="#51575f"/>
      <stop offset="0.16" stop-color="#3b4554"/>
      <stop offset="0.21" stop-color="#333f50"/>
      <stop offset="0.51" stop-color="#eeeded"/>
      <stop offset="0.53" stop-color="#dfdede"/>
      <stop offset="0.57" stop-color="#cdcccc"/>
      <stop offset="0.59" stop-color="#c7c6c6"/>
      <stop offset="0.65" stop-color="#9a9da2"/>
      <stop offset="0.72" stop-color="#6e757f"/>
      <stop offset="0.78" stop-color="#4e5765"/>
      <stop offset="0.83" stop-color="#3a4556"/>
      <stop offset="0.87" stop-color="#333f50"/>
    </linearGradient>
    <linearGradient id="Unbenannter_Verlauf_2-2" x1="-54.17" y1="113.14" x2="171.71" y2="113.14" xlink:href="#Unbenannter_Verlauf_2"/>
    <linearGradient id="Unbenannter_Verlauf_2-3" x1="-54.17" y1="122.25" x2="171.71" y2="122.25" xlink:href="#Unbenannter_Verlauf_2"/>
    <linearGradient id="Unbenannter_Verlauf_2-4" x1="-54.17" y1="138.1" x2="171.71" y2="138.1" xlink:href="#Unbenannter_Verlauf_2"/>
    <linearGradient id="Unbenannter_Verlauf_2-5" x1="-54.17" y1="168.76" x2="171.71" y2="168.76" xlink:href="#Unbenannter_Verlauf_2"/>
    <linearGradient id="Unbenannter_Verlauf_185" data-name="Unbenannter Verlauf 185" x1="81.98" y1="105.58" x2="81.98" y2="105.58" gradientUnits="userSpaceOnUse">
      <stop offset="0" stop-color="#be9a40"/>
      <stop offset="0.49" stop-color="#d4c35d"/>
      <stop offset="0.69" stop-color="#d4c55e"/>
      <stop offset="0.72" stop-color="#d1c05a"/>
      <stop offset="0.89" stop-color="#c3a447"/>
      <stop offset="0.98" stop-color="#be9a40"/>
    </linearGradient>
    <linearGradient id="Unbenannter_Verlauf_207" data-name="Unbenannter Verlauf 207" x1="81.62" y1="104.38" x2="81.62" y2="104.38" gradientTransform="matrix(1, 0, 0, 0.99, 0.13, 0.61)" gradientUnits="userSpaceOnUse">
      <stop offset="0" stop-color="#a6a5a4"/>
      <stop offset="0.29" stop-color="#e5e4e2"/>
      <stop offset="0.68" stop-color="#e5e4e2"/>
      <stop offset="0.76" stop-color="#d5d4d3"/>
      <stop offset="0.93" stop-color="#adacaa"/>
      <stop offset="0.99" stop-color="#9e9d9c"/>
    </linearGradient>
  </defs>
  <title>BankingCheck_Award_Siegel_2018_Kurzzeitkredit_Anbieter_Xpresscredit_MP</title>
  <g>
    <path d="M4.07,264.37a.09.09,0,0,1-.08-.08V11.13A10.24,10.24,0,0,1,14.22.9H135.57a.09.09,0,0,1,.08.08V254.14a10.24,10.24,0,0,1-10.23,10.23Z" transform="translate(-1.32 -0.83)" style="fill: url(#Unbenannter_Verlauf_78)"/>
    <path d="M135.57,1V254.14a10.15,10.15,0,0,1-10.15,10.15H4.07V11.13A10.15,10.15,0,0,1,14.22,1H135.57m0-.15H14.22A10.31,10.31,0,0,0,3.91,11.13V264.29a.16.16,0,0,0,.16.16H125.42a10.32,10.32,0,0,0,10.3-10.31V1a.15.15,0,0,0-.15-.15Z" transform="translate(-1.32 -0.83)" style="fill: #878787"/>
  </g>
  <g>
    <g>
      <path d="M40.43,67.13l.83-.12,3.55-10.15h2.4L50.74,67l.83.12v1.4h-4v-1.4l.8-.14-.51-1.61H44.11L43.59,67l.81.14v1.4h-4Zm4.23-3.47h2.68L46,59.55h0Z" transform="translate(-1.32 -0.83)" style="fill: #333f50"/>
      <path d="M66.28,58.27l-1,.12L63,68.53H60.78l-2.14-7.7h0l-2.14,7.7H54.27L51.89,58.39l-1-.12V56.86h4.3v1.41l-1.07.19,1.34,6.39h.05l2.19-8h1.72l2.2,8h0l1.33-6.39L62,58.27V56.86h4.29Z" transform="translate(-1.32 -0.83)" style="fill: #333f50"/>
      <path d="M65.48,67.13l.83-.12,3.55-10.15h2.4L75.79,67l.83.12v1.4h-4v-1.4l.81-.14-.51-1.61H69.15L68.64,67l.81.14v1.4h-4Zm4.23-3.47h2.68l-1.32-4.11h0Z" transform="translate(-1.32 -0.83)" style="fill: #333f50"/>
      <path d="M82.63,56.86a4.81,4.81,0,0,1,3.12.91,3,3,0,0,1,1.13,2.51,2.53,2.53,0,0,1-.47,1.54,3.39,3.39,0,0,1-1.39,1,2.51,2.51,0,0,1,1.49,1A3.22,3.22,0,0,1,87,65.64v.59a1,1,0,0,0,.15.6.7.7,0,0,0,.51.25l.29,0v1.41H86.7a1.89,1.89,0,0,1-1.61-.61,2.6,2.6,0,0,1-.47-1.6v-.66a1.89,1.89,0,0,0-.45-1.34,1.77,1.77,0,0,0-1.28-.51H81v3.08l1.26.24v1.4H77.39v-1.4l1.24-.24V58.51l-1.24-.24V56.86h5.24ZM81,62h1.62a2.19,2.19,0,0,0,1.47-.42,1.48,1.48,0,0,0,.49-1.2,1.66,1.66,0,0,0-.49-1.26,2,2,0,0,0-1.43-.47H81Z" transform="translate(-1.32 -0.83)" style="fill: #333f50"/>
      <path d="M93.93,56.86a4.83,4.83,0,0,1,3.53,1.37,4.73,4.73,0,0,1,1.39,3.51v1.93a4.73,4.73,0,0,1-1.39,3.51,4.86,4.86,0,0,1-3.53,1.35H88.68v-1.4l1.24-.24V58.51l-1.24-.24V56.86h5.25Zm-1.67,1.8v8.08h1.55a2.41,2.41,0,0,0,2-.85,3.33,3.33,0,0,0,.72-2.22v-2a3.32,3.32,0,0,0-.72-2.21,2.44,2.44,0,0,0-2-.85Z" transform="translate(-1.32 -0.83)" style="fill: #333f50"/>
    </g>
    <g>
      <path d="M40.42,92V89.4l6.51-7a14.8,14.8,0,0,0,2-2.73,4.39,4.39,0,0,0,.6-2.06,3.09,3.09,0,0,0-.69-2.08,2.39,2.39,0,0,0-1.94-.81,2.51,2.51,0,0,0-2.12,1,4.05,4.05,0,0,0-.72,2.52H40.13l0-.08a6.14,6.14,0,0,1,1.79-4.61,6.7,6.7,0,0,1,5-1.88,7,7,0,0,1,4.89,1.61,5.52,5.52,0,0,1,1.78,4.31,6,6,0,0,1-1,3.37,31.24,31.24,0,0,1-3.32,4l-3.58,3.91,0,.07h5.22l.17-2h3.06V92Z" transform="translate(-1.32 -0.83)" style="fill: #333f50"/>
      <path d="M70,84.2c0,2.67-.6,4.68-1.82,6.06a7,7,0,0,1-9.94,0c-1.23-1.38-1.84-3.39-1.84-6.06V79.77a8.92,8.92,0,0,1,1.83-6.06,7,7,0,0,1,9.93,0A8.87,8.87,0,0,1,70,79.77Zm-4-4.84a6.64,6.64,0,0,0-.72-3.51,2.49,2.49,0,0,0-4.15,0,6.69,6.69,0,0,0-.7,3.51v5.23a6.8,6.8,0,0,0,.71,3.54,2.34,2.34,0,0,0,2.09,1.1,2.29,2.29,0,0,0,2.06-1.1A6.8,6.8,0,0,0,66,84.59Z" transform="translate(-1.32 -0.83)" style="fill: #333f50"/>
      <path d="M72.11,89.62l3.4-.42V75.59H72.07V73.28l7.46-1.35V89.2l3.39.42V92H72.11Z" transform="translate(-1.32 -0.83)" style="fill: #333f50"/>
      <path d="M97.88,77.26a4.52,4.52,0,0,1-.8,2.66,5.22,5.22,0,0,1-2.19,1.81,5.88,5.88,0,0,1,2.52,1.94,4.67,4.67,0,0,1,.93,2.87,5.16,5.16,0,0,1-1.89,4.29,8.93,8.93,0,0,1-9.91,0,5.14,5.14,0,0,1-1.9-4.29,4.67,4.67,0,0,1,.92-2.88,5.88,5.88,0,0,1,2.52-1.93,5.13,5.13,0,0,1-2.2-1.81,4.58,4.58,0,0,1-.79-2.66,5.11,5.11,0,0,1,1.76-4.15,6.9,6.9,0,0,1,4.62-1.47,7,7,0,0,1,4.65,1.47A5.11,5.11,0,0,1,97.88,77.26Zm-3.56,9a3,3,0,0,0-.8-2.17,2.73,2.73,0,0,0-2-.81,2.7,2.7,0,0,0-2,.81,3.06,3.06,0,0,0-.77,2.17,3,3,0,0,0,.77,2.18,2.76,2.76,0,0,0,2.06.79,2.7,2.7,0,0,0,2-.8A3,3,0,0,0,94.32,86.26Zm-.47-8.82a2.87,2.87,0,0,0-.64-2,2.2,2.2,0,0,0-1.74-.74,2.13,2.13,0,0,0-1.71.73,2.89,2.89,0,0,0-.62,2,3,3,0,0,0,.62,2,2.17,2.17,0,0,0,1.74.74,2.15,2.15,0,0,0,1.72-.74A3,3,0,0,0,93.85,77.44Z" transform="translate(-1.32 -0.83)" style="fill: #333f50"/>
    </g>
  </g>
  <ellipse cx="68.28" cy="168.15" rx="54.13" ry="54.07" style="stroke: #dadada;stroke-miterlimit: 10;stroke-width: 0.547492967890262px;fill: url(#Unbenannter_Verlauf_61)"/>
  <circle cx="69.73" cy="168.35" r="49.47" style="opacity: 0.2;fill: url(#Unbenannter_Verlauf_303)"/>
  <g style="opacity: 0.1">
    <path d="M77.23,114.73a52.76,52.76,0,0,1,6,1.26l-2.37-7.8,5.68-5.91a66.91,66.91,0,0,0-8.88-1.68l-4.36,6.7Z" transform="translate(-1.32 -0.83)" style="fill: #1d1d1b"/>
    <path d="M95.86,121.09l-.37-8.16,6.9-4.27a67,67,0,0,0-12.16-5.32l-5.52,5.76,2.43,8A54.39,54.39,0,0,1,95.86,121.09Z" transform="translate(-1.32 -0.83)" style="fill: #1d1d1b"/>
    <path d="M109.16,131.57l2.17-7.88,7.85-1.91a68.76,68.76,0,0,0-13.51-11.19L99,114.75l.36,8.45A54,54,0,0,1,109.16,131.57Z" transform="translate(-1.32 -0.83)" style="fill: #1d1d1b"/>
    <g>
      <path d="M124.82,142.28l8,1.13a68,68,0,0,0-11.15-18.77l-7.65,1.86-2.26,8.15a54.65,54.65,0,0,1,8.14,14.14Z" transform="translate(-1.32 -0.83)" style="fill: #1d1d1b"/>
      <path d="M134.17,147l-7.84-1.1-5.07,6.72a54.08,54.08,0,1,1-52.8-38.44c1.6,0,3.19,0,4.76.13l-3.77-7.18,4.47-6.88c-1.9-.12-3.81-.18-5.74-.14a68.38,68.38,0,1,0,66,46.89Z" transform="translate(-1.32 -0.83)" style="fill: #1d1d1b"/>
    </g>
  </g>
  <g>
    <path d="M78.44,115.33a52.74,52.74,0,0,1,6,1.38l-2.22-7.82,5.81-5.78a68.24,68.24,0,0,0-8.86-1.85l-4.5,6.59Z" transform="translate(-1.32 -0.83)" style="stroke: #878787;stroke-miterlimit: 10;stroke-width: 0.274497736964737px;fill: url(#Unbenannter_Verlauf_2)"/>
    <path d="M97,122l-.2-8.15,7-4.11a67.26,67.26,0,0,0-12.06-5.54L86,109.87l2.27,8.06A54,54,0,0,1,97,122Z" transform="translate(-1.32 -0.83)" style="stroke: #878787;stroke-miterlimit: 10;stroke-width: 0.274497736964737px;fill: url(#Unbenannter_Verlauf_2-2)"/>
    <path d="M110.08,132.74l2.33-7.8,7.9-1.75A68.53,68.53,0,0,0,107,111.77l-6.81,4,.19,8.42A54.83,54.83,0,0,1,110.08,132.74Z" transform="translate(-1.32 -0.83)" style="stroke: #878787;stroke-miterlimit: 10;stroke-width: 0.274497736964737px;fill: url(#Unbenannter_Verlauf_2-3)"/>
    <g>
      <path d="M125.55,143.72l8,1.29a68.06,68.06,0,0,0-10.79-18.93l-7.71,1.71-2.42,8.07a54.1,54.1,0,0,1,7.87,14.25Z" transform="translate(-1.32 -0.83)" style="stroke: #878787;stroke-miterlimit: 10;stroke-width: 0.274497736964737px;fill: url(#Unbenannter_Verlauf_2-4)"/>
      <path d="M134.82,148.61,127,147.36,121.78,154a53.59,53.59,0,0,1,2.11,14.81,54.23,54.23,0,1,1-54.23-54.15c1.61,0,3.2.08,4.77.22L70.8,107.6l4.61-6.76c-1.89-.16-3.81-.26-5.75-.26a68.2,68.2,0,1,0,65.16,48Z" transform="translate(-1.32 -0.83)" style="stroke: #878787;stroke-miterlimit: 10;stroke-width: 0.274497736964737px;fill: url(#Unbenannter_Verlauf_2-5)"/>
    </g>
  </g>
  <g id="Kurzzeitkredit_Anbieter" data-name="Kurzzeitkredit Anbieter">
    <path d="M82,105.58" transform="translate(-1.32 -0.83)" style="stroke: #878787;stroke-miterlimit: 10;stroke-width: 0.545375823974609px;fill: url(#Unbenannter_Verlauf_185)"/>
    <path d="M81.6,104.32" transform="translate(-1.32 -0.83)" style="stroke: #1e1e1c;stroke-miterlimit: 10;stroke-width: 0.545375823974609px;fill: url(#Unbenannter_Verlauf_207)"/>
    <g>
      <path d="M25.55,159.21l1-.18v-7.28l-1-.18v-.8h3.32v.8l-1,.18v3.1h1l2.58-3.19-.69-.09v-.8h2.94v.8l-.87.16-2.83,3.5L33,159.05l.87.16v.8h-3v-.8l.71-.09-2.64-3.28H27.83V159l1,.18v.8H25.55Z" transform="translate(-1.32 -0.83)" style="fill: #fff"/>
      <path d="M39.65,159a2.36,2.36,0,0,1-.84.85,2.28,2.28,0,0,1-1.18.3,2.19,2.19,0,0,1-1.74-.72,3.3,3.3,0,0,1-.63-2.23v-3.07l-.79-.17v-.81h2v4.06a2.6,2.6,0,0,0,.32,1.51,1.2,1.2,0,0,0,1,.41,2,2,0,0,0,1.1-.27,1.64,1.64,0,0,0,.66-.76v-4l-.92-.17v-.81h2.17V159l.79.18v.8H39.73Z" transform="translate(-1.32 -0.83)" style="fill: #fff"/>
      <path d="M42.63,154v-.81h2.15l.12,1a2.46,2.46,0,0,1,.72-.83,1.67,1.67,0,0,1,1-.3l.3,0,.24.05L47,154.24l-.71,0a1.43,1.43,0,0,0-.84.23,1.55,1.55,0,0,0-.52.65V159l1,.18v.8H42.63v-.8l1-.18v-4.91Z" transform="translate(-1.32 -0.83)" style="fill: #fff"/>
      <path d="M49.64,159h2.8l.1-1.06H53.6v2H48.15v-.88l3.71-5H49.35l-.09,1.05H48.19v-2h5.2V154Z" transform="translate(-1.32 -0.83)" style="fill: #fff"/>
      <path d="M56.52,159h2.8l.1-1.06h1.06v2H55v-.88l3.72-5H56.23l-.09,1.05H55.07v-2h5.21V154Z" transform="translate(-1.32 -0.83)" style="fill: #fff"/>
      <path d="M64.8,160.14a2.9,2.9,0,0,1-2.28-.95,3.59,3.59,0,0,1-.85-2.48v-.28a3.52,3.52,0,0,1,.87-2.44,2.72,2.72,0,0,1,2.07-1,2.61,2.61,0,0,1,2.1.84,3.35,3.35,0,0,1,.71,2.23v.79H63l0,0a2.67,2.67,0,0,0,.5,1.62,1.58,1.58,0,0,0,1.35.64,3.21,3.21,0,0,0,1.12-.18,2.44,2.44,0,0,0,.82-.5l.49.82a3.22,3.22,0,0,1-1,.6A4,4,0,0,1,64.8,160.14ZM64.61,154a1.32,1.32,0,0,0-1.07.53,2.47,2.47,0,0,0-.55,1.33v0h3.17v-.17a1.93,1.93,0,0,0-.39-1.23A1.4,1.4,0,0,0,64.61,154Z" transform="translate(-1.32 -0.83)" style="fill: #fff"/>
      <path d="M68.65,159.21l1-.18v-4.91l-1-.17v-.81h2.29V159l1,.18v.8H68.65Zm2.29-7.83H69.69V150.1h1.25Z" transform="translate(-1.32 -0.83)" style="fill: #fff"/>
      <path d="M75.11,151.48v1.66h1.3v.93h-1.3v4.17a1,1,0,0,0,.2.68.72.72,0,0,0,.53.19l.37,0,.35-.06.17.86a1.54,1.54,0,0,1-.52.19,3.23,3.23,0,0,1-.69.07,1.6,1.6,0,0,1-1.21-.46,2,2,0,0,1-.45-1.44v-4.17H72.77v-.93h1.09v-1.66Z" transform="translate(-1.32 -0.83)" style="fill: #fff"/>
      <path d="M77.52,150.91v-.81H79.8v5.74h.8L82.07,154l-.63-.08v-.81h2.87V154l-.83.16-1.81,2.16,2.2,2.79.78.15v.8H81.8v-.8l.64-.09-1.82-2.28H79.8V159l1,.18v.8H77.52v-.8l1-.18v-7.94Z" transform="translate(-1.32 -0.83)" style="fill: #fff"/>
      <path d="M85.59,154v-.81h2.15l.12,1a2.46,2.46,0,0,1,.72-.83,1.69,1.69,0,0,1,1-.3l.3,0,.24.05-.16,1.16-.71,0a1.38,1.38,0,0,0-.83.23,1.41,1.41,0,0,0-.52.65V159l1,.18v.8H85.59v-.8l1-.18v-4.91Z" transform="translate(-1.32 -0.83)" style="fill: #fff"/>
      <path d="M94,160.14a2.9,2.9,0,0,1-2.28-.95,3.59,3.59,0,0,1-.85-2.48v-.28a3.48,3.48,0,0,1,.88-2.44,2.69,2.69,0,0,1,2.06-1,2.61,2.61,0,0,1,2.1.84,3.35,3.35,0,0,1,.71,2.23v.79H92.15l0,0a2.67,2.67,0,0,0,.5,1.62,1.58,1.58,0,0,0,1.35.64A3.21,3.21,0,0,0,95.1,159a2.35,2.35,0,0,0,.82-.5l.49.82a3.22,3.22,0,0,1-1,.6A4,4,0,0,1,94,160.14ZM93.79,154a1.32,1.32,0,0,0-1.07.53,2.47,2.47,0,0,0-.55,1.33l0,0h3.16v-.17a1.93,1.93,0,0,0-.39-1.23A1.4,1.4,0,0,0,93.79,154Z" transform="translate(-1.32 -0.83)" style="fill: #fff"/>
      <path d="M102.46,159.19a2.23,2.23,0,0,1-.82.71,2.51,2.51,0,0,1-1.13.24,2.34,2.34,0,0,1-2-.91,3.83,3.83,0,0,1-.71-2.4v-.13a4.61,4.61,0,0,1,.71-2.67,2.27,2.27,0,0,1,2-1,2.44,2.44,0,0,1,1.07.23,2.17,2.17,0,0,1,.8.65v-2.8l-1-.18v-.81h2.29V159l1,.18v.8h-2.12Zm-3.37-2.36a2.89,2.89,0,0,0,.43,1.67,1.46,1.46,0,0,0,1.31.62,1.65,1.65,0,0,0,.94-.25,2,2,0,0,0,.63-.72V155a1.91,1.91,0,0,0-.63-.69,1.66,1.66,0,0,0-.93-.25,1.44,1.44,0,0,0-1.32.74,3.8,3.8,0,0,0-.43,1.93Z" transform="translate(-1.32 -0.83)" style="fill: #fff"/>
      <path d="M105.64,159.21l1-.18v-4.91l-1-.17v-.81h2.28V159l1,.18v.8h-3.32Zm2.28-7.83h-1.25V150.1h1.25Z" transform="translate(-1.32 -0.83)" style="fill: #fff"/>
      <path d="M112.09,151.48v1.66h1.3v.93h-1.3v4.17a1,1,0,0,0,.2.68.72.72,0,0,0,.53.19l.37,0,.35-.06.17.86a1.54,1.54,0,0,1-.52.19,3.23,3.23,0,0,1-.69.07,1.61,1.61,0,0,1-1.21-.46,2,2,0,0,1-.45-1.44v-4.17h-1.08v-.93h1.08v-1.66Z" transform="translate(-1.32 -0.83)" style="fill: #fff"/>
      <path d="M43.05,176.21l.68-.1L47,167.77H48l3.17,8.34.68.1v.8H49.24v-.8l.7-.12-.61-1.7H45.62l-.62,1.7.69.12v.8H43.05Zm3-2.87h2.93l-1.43-4h0Z" transform="translate(-1.32 -0.83)" style="fill: #fff"/>
      <path d="M52.6,176.21l1-.18v-4.91l-1-.17v-.81h2.15l.09,1a2.58,2.58,0,0,1,.86-.85,2.33,2.33,0,0,1,1.18-.3,2.26,2.26,0,0,1,1.72.65,2.86,2.86,0,0,1,.61,2V176l1,.18v.8H56.92v-.8l1-.18V172.7a1.84,1.84,0,0,0-.36-1.29,1.41,1.41,0,0,0-1.1-.38,1.72,1.72,0,0,0-1,.26,1.81,1.81,0,0,0-.66.71v4l1,.18v.8H52.6Z" transform="translate(-1.32 -0.83)" style="fill: #fff"/>
      <path d="M67.44,173.83a3.77,3.77,0,0,1-.72,2.4,2.34,2.34,0,0,1-2,.91,2.41,2.41,0,0,1-1.17-.26,2.15,2.15,0,0,1-.83-.76l-.11.89H61.57v-8.92l-1-.18v-.81h2.28V171a2.23,2.23,0,0,1,.8-.7,2.49,2.49,0,0,1,1.12-.24,2.27,2.27,0,0,1,2,1,4.53,4.53,0,0,1,.72,2.67Zm-1.26-.13a3.91,3.91,0,0,0-.43-1.93,1.44,1.44,0,0,0-1.32-.74,1.64,1.64,0,0,0-1,.28,2,2,0,0,0-.63.75v3a2,2,0,0,0,.64.76,1.71,1.71,0,0,0,1,.27,1.47,1.47,0,0,0,1.31-.62,2.89,2.89,0,0,0,.43-1.67Z" transform="translate(-1.32 -0.83)" style="fill: #fff"/>
      <path d="M68.68,176.21l1-.18v-4.91l-1-.17v-.81H71V176l1,.18v.8H68.68ZM71,168.38H69.71V167.1H71Z" transform="translate(-1.32 -0.83)" style="fill: #fff"/>
      <path d="M76.09,177.14a2.9,2.9,0,0,1-2.28-.95,3.59,3.59,0,0,1-.85-2.48v-.28a3.52,3.52,0,0,1,.87-2.44,2.69,2.69,0,0,1,2.07-1,2.61,2.61,0,0,1,2.1.84,3.35,3.35,0,0,1,.71,2.23v.79H74.25l0,0a2.67,2.67,0,0,0,.51,1.62,1.58,1.58,0,0,0,1.35.64A3.15,3.15,0,0,0,77.2,176a2.39,2.39,0,0,0,.83-.5l.49.82a3.28,3.28,0,0,1-1,.6A3.93,3.93,0,0,1,76.09,177.14ZM75.9,171a1.35,1.35,0,0,0-1.08.53,2.54,2.54,0,0,0-.54,1.33v0h3.17v-.17a1.88,1.88,0,0,0-.4-1.23A1.39,1.39,0,0,0,75.9,171Z" transform="translate(-1.32 -0.83)" style="fill: #fff"/>
      <path d="M82.12,168.48v1.66h1.31v.93H82.12v4.17a1,1,0,0,0,.2.68.73.73,0,0,0,.53.19l.38,0,.34-.06.17.86a1.54,1.54,0,0,1-.52.19,3.14,3.14,0,0,1-.68.07,1.62,1.62,0,0,1-1.22-.46,2,2,0,0,1-.45-1.44v-4.17H79.79v-.93h1.08v-1.66Z" transform="translate(-1.32 -0.83)" style="fill: #fff"/>
      <path d="M87.84,177.14a2.9,2.9,0,0,1-2.28-.95,3.59,3.59,0,0,1-.85-2.48v-.28a3.52,3.52,0,0,1,.87-2.44,2.69,2.69,0,0,1,2.07-1,2.58,2.58,0,0,1,2.09.84,3.3,3.3,0,0,1,.72,2.23v.79H86l0,0a2.74,2.74,0,0,0,.5,1.62,1.61,1.61,0,0,0,1.36.64A3.15,3.15,0,0,0,89,176a2.39,2.39,0,0,0,.83-.5l.49.82a3.28,3.28,0,0,1-1,.6A3.93,3.93,0,0,1,87.84,177.14ZM87.65,171a1.35,1.35,0,0,0-1.08.53,2.54,2.54,0,0,0-.54,1.33v0h3.17v-.17a1.88,1.88,0,0,0-.4-1.23A1.39,1.39,0,0,0,87.65,171Z" transform="translate(-1.32 -0.83)" style="fill: #fff"/>
      <path d="M91.69,171v-.81h2.15l.12,1a2.46,2.46,0,0,1,.72-.83,1.69,1.69,0,0,1,1-.3l.3,0,.24.05L96,171.24l-.71,0a1.38,1.38,0,0,0-.83.23,1.41,1.41,0,0,0-.52.65V176l1,.18v.8H91.69v-.8l1-.18v-4.91Z" transform="translate(-1.32 -0.83)" style="fill: #fff"/>
      <path d="M39.61,190.76H38.16l-.31-1.27A2.55,2.55,0,0,0,37,189a3.53,3.53,0,0,0-1.21-.2,2.21,2.21,0,0,0-1.52.45,1.41,1.41,0,0,0-.5,1.08,1.22,1.22,0,0,0,.44,1,4.59,4.59,0,0,0,1.79.64,7.88,7.88,0,0,1,3,1.17,2.35,2.35,0,0,1,1,2,2.72,2.72,0,0,1-1.14,2.27,4.72,4.72,0,0,1-3,.87,7.59,7.59,0,0,1-2.16-.28,5.72,5.72,0,0,1-1.71-.8v-2.41h1.45l.36,1.41a2,2,0,0,0,.9.44,5.06,5.06,0,0,0,1.17.14,2.72,2.72,0,0,0,1.61-.42A1.29,1.29,0,0,0,38,195.2a1.3,1.3,0,0,0-.48-1,4.67,4.67,0,0,0-1.84-.71,7.56,7.56,0,0,1-2.9-1.15,2.29,2.29,0,0,1-1-2,2.75,2.75,0,0,1,1.1-2.2,4.34,4.34,0,0,1,2.85-.9,6.91,6.91,0,0,1,2.16.31,4.49,4.49,0,0,1,1.59.87Z" transform="translate(-1.32 -0.83)" style="fill: #fff"/>
      <path d="M46.54,198.21A4.46,4.46,0,0,1,43,196.74a5.52,5.52,0,0,1-1.3-3.81v-.43a5.46,5.46,0,0,1,1.34-3.76,4.17,4.17,0,0,1,3.18-1.49,4,4,0,0,1,3.23,1.28,5.15,5.15,0,0,1,1.1,3.44v1.2H43.72l0,.05a4.23,4.23,0,0,0,.77,2.51,2.48,2.48,0,0,0,2.08,1,4.77,4.77,0,0,0,1.72-.28,4,4,0,0,0,1.27-.77l.75,1.25a4.37,4.37,0,0,1-1.5.93A6,6,0,0,1,46.54,198.21Zm-.29-9.45a2.1,2.1,0,0,0-1.65.81,3.83,3.83,0,0,0-.84,2.05l0,0h4.87v-.25a3,3,0,0,0-.6-1.9A2.17,2.17,0,0,0,46.25,188.76Z" transform="translate(-1.32 -0.83)" style="fill: #fff"/>
      <path d="M52.21,196.78l1.59-.28V184.29L52.21,184v-1.24h3.51v6.08a3.87,3.87,0,0,1,1.34-1.18,3.69,3.69,0,0,1,1.76-.42,3.41,3.41,0,0,1,2.64,1,4.52,4.52,0,0,1,.93,3.13v5.11l1.59.28V198h-5.1v-1.23l1.59-.28v-5.13a2.86,2.86,0,0,0-.56-1.94,2.17,2.17,0,0,0-1.68-.62,2.86,2.86,0,0,0-1.44.37,3.16,3.16,0,0,0-1.07,1v6.3l1.59.28V198h-5.1Z" transform="translate(-1.32 -0.83)" style="fill: #fff"/>
      <path d="M65.38,188.68v-1.24h3.31l.19,1.53A3.74,3.74,0,0,1,70,187.7a2.6,2.6,0,0,1,1.5-.45l.47,0a2.86,2.86,0,0,1,.36.07l-.25,1.79L71,189.08a2.17,2.17,0,0,0-1.28.36,2.29,2.29,0,0,0-.8,1v6.06l1.59.28V198H65.38v-1.23L67,196.5V189Z" transform="translate(-1.32 -0.83)" style="fill: #fff"/>
      <path d="M78.63,192.92a6.87,6.87,0,0,1,1.12-4.11,3.56,3.56,0,0,1,3.07-1.56,3.73,3.73,0,0,1,1.75.39,3.4,3.4,0,0,1,1.26,1.13l.18-1.33h1.62v10.43a4.42,4.42,0,0,1-1.15,3.23,4.33,4.33,0,0,1-3.25,1.17,6.72,6.72,0,0,1-1.65-.21,6.49,6.49,0,0,1-1.56-.57l.5-1.49a6,6,0,0,0,1.27.47,5.94,5.94,0,0,0,1.42.18,2.32,2.32,0,0,0,1.89-.72,3.14,3.14,0,0,0,.6-2.06v-1a3.26,3.26,0,0,1-1.24,1,3.79,3.79,0,0,1-1.66.34,3.69,3.69,0,0,1-3-1.4,5.74,5.74,0,0,1-1.12-3.69Zm1.93.2a4.36,4.36,0,0,0,.67,2.56,2.32,2.32,0,0,0,2,1,2.51,2.51,0,0,0,1.46-.4,2.92,2.92,0,0,0,1-1.11v-4.87a3,3,0,0,0-1-1.07,2.58,2.58,0,0,0-1.44-.39A2.24,2.24,0,0,0,81.24,190a5.79,5.79,0,0,0-.68,3Z" transform="translate(-1.32 -0.83)" style="fill: #fff"/>
      <path d="M97.5,196.44a3.42,3.42,0,0,1-3.1,1.77,3.39,3.39,0,0,1-2.68-1.1,5.1,5.1,0,0,1-1-3.44V189l-1.21-.27v-1.24h3.14v6.25a4,4,0,0,0,.49,2.33,1.87,1.87,0,0,0,1.56.63,3.11,3.11,0,0,0,1.69-.42,2.52,2.52,0,0,0,1-1.17V189L96,188.68v-1.24h3.34v9.06l1.21.28V198H97.63Z" transform="translate(-1.32 -0.83)" style="fill: #fff"/>
      <path d="M105.45,184.89v2.55h2v1.43h-2v6.41a1.42,1.42,0,0,0,.31,1.05,1.09,1.09,0,0,0,.81.3,4,4,0,0,0,.57,0,4.42,4.42,0,0,0,.54-.1l.26,1.32a2.28,2.28,0,0,1-.8.29,5.37,5.37,0,0,1-1.06.11,2.45,2.45,0,0,1-1.86-.71,3.08,3.08,0,0,1-.69-2.22v-6.41h-1.67v-1.43h1.67v-2.55Z" transform="translate(-1.32 -0.83)" style="fill: #fff"/>
    </g>
    <path d="M89.34,105.44" transform="translate(-1.32 -0.83)" style="fill: #333f50;stroke: #878787;stroke-miterlimit: 10;stroke-width: 0.705557505852349px"/>
    <path d="M107.76,114" transform="translate(-1.32 -0.83)" style="fill: #333f50;stroke: #878787;stroke-miterlimit: 10;stroke-width: 0.705557505852349px"/>
    <path d="M123.37,125.87" transform="translate(-1.32 -0.83)" style="fill: #333f50;stroke: #878787;stroke-miterlimit: 10;stroke-width: 0.705557505852349px"/>
    <path d="M126.53,130.27" transform="translate(-1.32 -0.83)" style="fill: #333f50;stroke: #878787;stroke-miterlimit: 10;stroke-width: 0.705557505852349px"/>
  </g>
  <g>
    <path d="M59.28,136.76h1.93v1.47H59.28V140l1.56.27v1.21h-5v-1.21L57.4,140v-1.75H51.13v-1.06l6.16-9.67h2Zm-6.13,0H57.4v-6.57l-.06,0-.19.51Z" transform="translate(-1.32 -0.83)" style="fill: #fff"/>
    <path d="M64.93,140.77a4.75,4.75,0,0,1-.47,2,5.1,5.1,0,0,1-1.27,1.71l-1.06-.71a5.7,5.7,0,0,0,.68-1.41,5.1,5.1,0,0,0,.23-1.53v-1.45h1.89Z" transform="translate(-1.32 -0.83)" style="fill: #fff"/>
    <path d="M72.15,127.3a6.16,6.16,0,0,1,1.41.16,5.1,5.1,0,0,1,1.17.41l-.37,1.41a4.82,4.82,0,0,0-1-.36,4.93,4.93,0,0,0-1.22-.14,2.82,2.82,0,0,0-2.34,1.11,5.61,5.61,0,0,0-.92,3.34l0,0a3.79,3.79,0,0,1,1.31-.79,4.64,4.64,0,0,1,1.68-.29,3.74,3.74,0,0,1,3,1.29A4.86,4.86,0,0,1,76,136.76a5.19,5.19,0,0,1-1.18,3.53,4,4,0,0,1-3.16,1.37,4.39,4.39,0,0,1-3.39-1.49A6.08,6.08,0,0,1,66.94,136v-1.88A7.68,7.68,0,0,1,68.4,129,4.66,4.66,0,0,1,72.15,127.3Zm-.65,6.29a3.3,3.3,0,0,0-1.65.39,2.71,2.71,0,0,0-1,1v1.12a4.83,4.83,0,0,0,.81,3,2.49,2.49,0,0,0,2,1,2,2,0,0,0,1.8-1,4.29,4.29,0,0,0,.65-2.44,3.59,3.59,0,0,0-.69-2.27A2.31,2.31,0,0,0,71.5,133.59Z" transform="translate(-1.32 -0.83)" style="fill: #fff"/>
    <path d="M77.82,142.25H76.75l3.88-10.1h1.06Z" transform="translate(-1.32 -0.83)" style="fill: #fff"/>
    <path d="M87.25,134l-.12-.72H84.35l-.3,2.61a2.88,2.88,0,0,1,.65-.36,2.65,2.65,0,0,1,2.85.68,3.39,3.39,0,0,1,.74,2.29,3.29,3.29,0,0,1-.75,2.25,2.75,2.75,0,0,1-2.19.85,3,3,0,0,1-2-.65,2.21,2.21,0,0,1-.76-1.89l0,0h1.13a1.55,1.55,0,0,0,.44,1.17,1.57,1.57,0,0,0,1.13.43,1.48,1.48,0,0,0,1.24-.57A2.45,2.45,0,0,0,87,138.5a2.36,2.36,0,0,0-.44-1.47,1.48,1.48,0,0,0-1.23-.57,2,2,0,0,0-1.08.22,1.29,1.29,0,0,0-.49.69l-1.05-.11.54-5.11h4.91V134Z" transform="translate(-1.32 -0.83)" style="fill: #fff"/>
  </g>
  <g>
    <path d="M43.77,245.9l-.53,1.59h-.68l1.73-5.06h.78l1.73,5.06h-.7l-.54-1.59Zm1.66-.51-.5-1.45c-.11-.33-.19-.63-.26-.93h0c-.07.3-.15.61-.25.92l-.5,1.46Z" transform="translate(-1.32 -0.83)" style="fill: #3c3c3b"/>
    <path d="M50.47,246.5a9.86,9.86,0,0,0,0,1h-.59l0-.59h0a1.38,1.38,0,0,1-1.2.68c-.57,0-1.26-.33-1.26-1.59v-2.13h.66v2c0,.69.22,1.16.81,1.16a1,1,0,0,0,.88-.61,1.09,1.09,0,0,0,.06-.34v-2.22h.66Z" transform="translate(-1.32 -0.83)" style="fill: #3c3c3b"/>
    <path d="M51.47,246.83a1.87,1.87,0,0,0,.88.25c.47,0,.69-.23.69-.54s-.18-.48-.66-.66c-.66-.24-1-.59-1-1a1.12,1.12,0,0,1,1.25-1.06,1.69,1.69,0,0,1,.89.22l-.16.48a1.41,1.41,0,0,0-.74-.22c-.39,0-.6.23-.6.5s.21.44.68.62c.62.24,1,.55,1,1.09s-.5,1.1-1.35,1.1a2.08,2.08,0,0,1-1-.26Z" transform="translate(-1.32 -0.83)" style="fill: #3c3c3b"/>
    <path d="M57.64,247a2.16,2.16,0,0,1-.52,1.67,2,2,0,0,1-1.33.43,2.29,2.29,0,0,1-1.21-.3l.17-.51a1.93,1.93,0,0,0,1.06.3c.68,0,1.17-.36,1.17-1.28v-.4h0a1.29,1.29,0,0,1-1.16.61,1.62,1.62,0,0,1-1.54-1.77,1.73,1.73,0,0,1,1.64-1.92,1.2,1.2,0,0,1,1.13.62h0l0-.55h.59a9.16,9.16,0,0,0,0,1ZM57,245.29a.85.85,0,0,0,0-.29.94.94,0,0,0-.93-.7c-.63,0-1.08.53-1.08,1.37S55.3,247,56,247a1,1,0,0,0,.91-.68A1.07,1.07,0,0,0,57,246Z" transform="translate(-1.32 -0.83)" style="fill: #3c3c3b"/>
    <path d="M61.27,246.62a5.57,5.57,0,0,0,.06.87h-.6l0-.45h0a1.39,1.39,0,0,1-1.11.54,1,1,0,0,1-1.11-1.05c0-.87.78-1.36,2.18-1.35v-.07a.75.75,0,0,0-.83-.84,1.79,1.79,0,0,0-.95.27l-.15-.44a2.32,2.32,0,0,1,1.2-.31c1.11,0,1.38.75,1.38,1.48Zm-.64-1c-.72,0-1.53.11-1.53.82a.58.58,0,0,0,.61.63.91.91,0,0,0,.89-.61.53.53,0,0,0,0-.21Z" transform="translate(-1.32 -0.83)" style="fill: #3c3c3b"/>
    <path d="M62.33,242.16H63v2.29h0a1.36,1.36,0,0,1,1.24-.66,1.63,1.63,0,0,1,1.54,1.84,1.73,1.73,0,0,1-1.64,2,1.33,1.33,0,0,1-1.22-.68h0l0,.59h-.56c0-.24,0-.61,0-.93ZM63,246a1,1,0,0,0,0,.24,1,1,0,0,0,1,.77c.7,0,1.1-.56,1.1-1.39s-.37-1.36-1.09-1.36a1.05,1.05,0,0,0-1,.81.86.86,0,0,0,0,.28Z" transform="translate(-1.32 -0.83)" style="fill: #3c3c3b"/>
    <path d="M67,245.8a1.17,1.17,0,0,0,1.25,1.26,2.26,2.26,0,0,0,1-.19l.12.47a2.84,2.84,0,0,1-1.21.24,1.7,1.7,0,0,1-1.79-1.84,1.76,1.76,0,0,1,1.7-2,1.53,1.53,0,0,1,1.51,1.7,1.24,1.24,0,0,1,0,.31Zm1.94-.47a.94.94,0,0,0-.92-1.07,1.08,1.08,0,0,0-1,1.07Z" transform="translate(-1.32 -0.83)" style="fill: #3c3c3b"/>
    <path d="M75,245c0,1.66-.62,2.58-1.7,2.58s-1.6-.9-1.62-2.51.72-2.54,1.71-2.54S75,243.45,75,245Zm-2.65.08c0,1.27.39,2,1,2s1-.79,1-2-.3-2-1-2S72.34,243.75,72.34,245.08Z" transform="translate(-1.32 -0.83)" style="fill: #3c3c3b"/>
    <path d="M78.37,243.08a2.24,2.24,0,0,0-.49,0,1.94,1.94,0,0,0-1.7,1.72h0a1.49,1.49,0,0,1,1.19-.57,1.45,1.45,0,0,1,1.47,1.58,1.64,1.64,0,0,1-1.63,1.73c-1,0-1.72-.81-1.72-2.08a3,3,0,0,1,.83-2.2,2.64,2.64,0,0,1,1.56-.72,3.28,3.28,0,0,1,.48,0Zm-.19,2.82a1,1,0,0,0-1-1.12,1.08,1.08,0,0,0-1,.6.55.55,0,0,0-.07.28c0,.81.38,1.41,1.08,1.41S78.18,246.59,78.18,245.9Z" transform="translate(-1.32 -0.83)" style="fill: #3c3c3b"/>
    <path d="M79.09,247.79l2.09-5.45h.51l-2.1,5.45Z" transform="translate(-1.32 -0.83)" style="fill: #3c3c3b"/>
    <path d="M82,247.49v-.4l.51-.5c1.25-1.19,1.82-1.82,1.82-2.56a.86.86,0,0,0-1-.95,1.74,1.74,0,0,0-1,.41l-.21-.46a2.16,2.16,0,0,1,1.38-.5A1.37,1.37,0,0,1,85,244c0,.9-.65,1.63-1.68,2.62l-.38.36v0h2.18v.54Z" transform="translate(-1.32 -0.83)" style="fill: #3c3c3b"/>
    <path d="M89.1,245c0,1.66-.62,2.58-1.69,2.58s-1.61-.9-1.62-2.51.71-2.54,1.7-2.54S89.1,243.45,89.1,245Zm-2.65.08c0,1.27.39,2,1,2s1-.79,1-2-.3-2-1-2S86.45,243.75,86.45,245.08Z" transform="translate(-1.32 -0.83)" style="fill: #3c3c3b"/>
    <path d="M91.13,243.23h0l-.85.46-.13-.5,1.07-.58h.56v4.88h-.64Z" transform="translate(-1.32 -0.83)" style="fill: #3c3c3b"/>
    <path d="M94.45,244.93a1.21,1.21,0,0,1-.78-1.1,1.37,1.37,0,0,1,1.51-1.3,1.27,1.27,0,0,1,1.43,1.2,1.23,1.23,0,0,1-.81,1.14v0a1.35,1.35,0,0,1,1,1.26,1.5,1.5,0,0,1-1.66,1.42c-1,0-1.63-.6-1.63-1.32a1.41,1.41,0,0,1,1-1.31Zm1.67,1.3c0-.59-.42-.88-1.08-1.07a1.07,1.07,0,0,0-.88,1,.91.91,0,0,0,1,.93A.89.89,0,0,0,96.12,246.23Zm-1.82-2.44c0,.48.37.75.93.9a1,1,0,0,0,.74-.89.75.75,0,0,0-.82-.79A.78.78,0,0,0,94.3,243.79Z" transform="translate(-1.32 -0.83)" style="fill: #3c3c3b"/>
    <path d="M31.09,251.43v5.06h-.66v-5.06Z" transform="translate(-1.32 -0.83)" style="fill: #3c3c3b"/>
    <path d="M32.29,253.84c0-.38,0-.68,0-1h.57l0,.59h0a1.26,1.26,0,0,1,1.15-.66,1.08,1.08,0,0,1,1,.72h0a1.37,1.37,0,0,1,.41-.47,1.27,1.27,0,0,1,.8-.25c.49,0,1.2.31,1.2,1.57v2.13h-.64v-2c0-.71-.27-1.12-.79-1.12a.86.86,0,0,0-.79.59,1.14,1.14,0,0,0,0,.33v2.24h-.65v-2.17c0-.58-.25-1-.76-1A.92.92,0,0,0,33,254a1.07,1.07,0,0,0,0,.32v2.18h-.64Z" transform="translate(-1.32 -0.83)" style="fill: #3c3c3b"/>
    <path d="M41,256.49l-1.66-5.06h.71l.79,2.5c.21.68.4,1.3.54,1.89h0c.15-.59.35-1.22.58-1.89l.86-2.5h.69l-1.8,5.06Z" transform="translate(-1.32 -0.83)" style="fill: #3c3c3b"/>
    <path d="M44.17,254.8a1.16,1.16,0,0,0,1.24,1.26,2.28,2.28,0,0,0,1-.19l.12.47a2.86,2.86,0,0,1-1.22.24,1.69,1.69,0,0,1-1.78-1.84,1.75,1.75,0,0,1,1.7-2,1.53,1.53,0,0,1,1.5,1.7,2.28,2.28,0,0,1,0,.31Zm1.93-.47a.93.93,0,0,0-.91-1.07,1.09,1.09,0,0,0-1,1.07Z" transform="translate(-1.32 -0.83)" style="fill: #3c3c3b"/>
    <path d="M47.56,254c0-.42,0-.79,0-1.13h.57l0,.72h0a1.08,1.08,0,0,1,1-.79h.18v.62h-.22a.92.92,0,0,0-.89.84,1.51,1.51,0,0,0,0,.31v1.93h-.66Z" transform="translate(-1.32 -0.83)" style="fill: #3c3c3b"/>
    <path d="M53.06,256a2.16,2.16,0,0,1-.52,1.67,2,2,0,0,1-1.33.43,2.29,2.29,0,0,1-1.21-.3l.17-.51a1.93,1.93,0,0,0,1.06.3c.68,0,1.17-.36,1.17-1.28v-.4h0a1.29,1.29,0,0,1-1.16.61,1.62,1.62,0,0,1-1.54-1.77,1.73,1.73,0,0,1,1.64-1.92,1.2,1.2,0,0,1,1.13.62h0l0-.55h.59a9.16,9.16,0,0,0,0,1Zm-.66-1.67a.85.85,0,0,0,0-.29.94.94,0,0,0-.92-.7c-.64,0-1.09.53-1.09,1.37s.37,1.31,1.08,1.31a1,1,0,0,0,.91-.68,1.07,1.07,0,0,0,.06-.35Z" transform="translate(-1.32 -0.83)" style="fill: #3c3c3b"/>
    <path d="M54.14,251.16h.66v5.33h-.66Z" transform="translate(-1.32 -0.83)" style="fill: #3c3c3b"/>
    <path d="M56.28,254.8a1.16,1.16,0,0,0,1.25,1.26,2.26,2.26,0,0,0,1-.19l.12.47a2.84,2.84,0,0,1-1.21.24,1.7,1.7,0,0,1-1.79-1.84,1.75,1.75,0,0,1,1.7-2,1.52,1.52,0,0,1,1.5,1.7,1.33,1.33,0,0,1,0,.31Zm1.94-.47a1,1,0,0,0-.92-1.07,1.08,1.08,0,0,0-1,1.07Z" transform="translate(-1.32 -0.83)" style="fill: #3c3c3b"/>
    <path d="M60.4,251.84a.39.39,0,0,1-.42.41.38.38,0,0,1-.39-.41.41.41,0,1,1,.81,0Zm-.73,4.65v-3.63h.66v3.63Z" transform="translate(-1.32 -0.83)" style="fill: #3c3c3b"/>
    <path d="M64,256.37a2.56,2.56,0,0,1-1,.21,1.73,1.73,0,0,1-1.81-1.86,1.85,1.85,0,0,1,2-1.93A2.08,2.08,0,0,1,64,253l-.15.5a1.68,1.68,0,0,0-.77-.17,1.26,1.26,0,0,0-1.28,1.38A1.24,1.24,0,0,0,63.09,256a1.92,1.92,0,0,0,.81-.17Z" transform="translate(-1.32 -0.83)" style="fill: #3c3c3b"/>
    <path d="M64.78,251.16h.66v2.28h0a1.18,1.18,0,0,1,.47-.47,1.3,1.3,0,0,1,.68-.18c.49,0,1.27.3,1.27,1.54v2.16h-.66v-2.08c0-.59-.22-1.08-.84-1.08a1,1,0,0,0-.89.66.75.75,0,0,0,0,.31v2.19h-.66Z" transform="translate(-1.32 -0.83)" style="fill: #3c3c3b"/>
    <path d="M71.76,252.23h0l-.84.46-.13-.5,1.06-.58h.57v4.88h-.64Z" transform="translate(-1.32 -0.83)" style="fill: #3c3c3b"/>
    <path d="M74.56,256a3.47,3.47,0,0,0,.53,0,1.86,1.86,0,0,0,1-.48,2.15,2.15,0,0,0,.65-1.29h0a1.47,1.47,0,0,1-2.59-1,1.68,1.68,0,0,1,1.67-1.74c1,0,1.61.81,1.61,2.07a3.09,3.09,0,0,1-.84,2.28,2.4,2.4,0,0,1-1.42.65,2.72,2.72,0,0,1-.6,0Zm.24-2.8a.94.94,0,0,0,.93,1,1.1,1.1,0,0,0,1-.52.5.5,0,0,0,.06-.24c0-.84-.31-1.47-1-1.47S74.8,252.53,74.8,253.23Z" transform="translate(-1.32 -0.83)" style="fill: #3c3c3b"/>
    <path d="M80.81,252.08a2.33,2.33,0,0,0-.5,0,2,2,0,0,0-1.7,1.72h0a1.49,1.49,0,0,1,2.66,1,1.64,1.64,0,0,1-1.63,1.73c-1,0-1.72-.81-1.72-2.08a3.07,3.07,0,0,1,.82-2.2,2.64,2.64,0,0,1,1.56-.72,3.39,3.39,0,0,1,.49,0Zm-.19,2.82a1,1,0,0,0-1-1.12,1.08,1.08,0,0,0-1,.6.55.55,0,0,0-.07.28c0,.81.38,1.41,1.08,1.41S80.62,255.59,80.62,254.9Z" transform="translate(-1.32 -0.83)" style="fill: #3c3c3b"/>
    <path d="M83.68,251.43h2.73V252H84.34v1.68h1.91v.55H84.34v2.28h-.66Z" transform="translate(-1.32 -0.83)" style="fill: #3c3c3b"/>
    <path d="M87.86,251.84a.4.4,0,0,1-.42.41.39.39,0,0,1-.4-.41.4.4,0,0,1,.42-.41A.39.39,0,0,1,87.86,251.84Zm-.74,4.65v-3.63h.67v3.63Z" transform="translate(-1.32 -0.83)" style="fill: #3c3c3b"/>
    <path d="M88.88,253.84c0-.38,0-.68,0-1h.59l0,.6h0a1.34,1.34,0,0,1,1.2-.67c.5,0,1.28.3,1.28,1.54v2.16h-.66V254.4c0-.59-.22-1.07-.84-1.07a.94.94,0,0,0-.88.67,1,1,0,0,0,0,.31v2.18h-.66Z" transform="translate(-1.32 -0.83)" style="fill: #3c3c3b"/>
    <path d="M93.65,252H92.11v-.56h3.75V252H94.31v4.5h-.66Z" transform="translate(-1.32 -0.83)" style="fill: #3c3c3b"/>
    <path d="M96.23,254.8a1.17,1.17,0,0,0,1.25,1.26,2.26,2.26,0,0,0,1-.19l.12.47a2.84,2.84,0,0,1-1.21.24,1.7,1.7,0,0,1-1.79-1.84,1.76,1.76,0,0,1,1.7-2,1.53,1.53,0,0,1,1.51,1.7,1.24,1.24,0,0,1,0,.31Zm1.94-.47a1,1,0,0,0-.92-1.07,1.08,1.08,0,0,0-1,1.07Z" transform="translate(-1.32 -0.83)" style="fill: #3c3c3b"/>
    <path d="M102.21,256.37a2.6,2.6,0,0,1-1,.21,1.73,1.73,0,0,1-1.81-1.86,1.84,1.84,0,0,1,2-1.93,2.11,2.11,0,0,1,.92.19l-.16.5a1.6,1.6,0,0,0-.76-.17,1.26,1.26,0,0,0-1.28,1.38,1.24,1.24,0,0,0,1.26,1.35,2,2,0,0,0,.81-.17Z" transform="translate(-1.32 -0.83)" style="fill: #3c3c3b"/>
    <path d="M103,251.16h.66v2.28h0a1.18,1.18,0,0,1,.47-.47,1.27,1.27,0,0,1,.67-.18c.49,0,1.27.3,1.27,1.54v2.16h-.66v-2.08c0-.59-.22-1.08-.84-1.08a.94.94,0,0,0-.88.66.75.75,0,0,0,0,.31v2.19H103Z" transform="translate(-1.32 -0.83)" style="fill: #3c3c3b"/>
    <path d="M107.05,255.83a1.87,1.87,0,0,0,.88.25c.47,0,.7-.23.7-.54s-.19-.48-.67-.66c-.66-.24-1-.59-1-1a1.13,1.13,0,0,1,1.26-1.06,1.65,1.65,0,0,1,.88.22l-.16.48a1.38,1.38,0,0,0-.74-.22c-.39,0-.6.23-.6.5s.21.44.68.62c.63.24,1,.55,1,1.09s-.51,1.1-1.35,1.1a2.12,2.12,0,0,1-1-.26Z" transform="translate(-1.32 -0.83)" style="fill: #3c3c3b"/>
  </g>
  <g>
    <g id="Schatten">
      <polygon points="109.49 47.17 104.85 44.74 100.21 47.19 101.09 42.02 97.33 38.37 102.52 37.61 104.83 32.91 107.15 37.6 112.34 38.34 108.59 42.01 109.49 47.17" style="fill: #575756"/>
      <polygon points="72.65 47.17 68 44.74 63.37 47.19 64.25 42.02 60.49 38.37 65.67 37.61 67.98 32.91 70.31 37.6 75.5 38.34 71.75 42.01 72.65 47.17" style="fill: #575756"/>
      <polygon points="35.8 47.17 31.16 44.74 26.53 47.19 27.4 42.02 23.64 38.37 28.83 37.61 31.14 32.91 33.47 37.6 38.66 38.34 34.91 42.01 35.8 47.17" style="fill: #575756"/>
      <polygon points="54.23 47.17 49.58 44.74 44.95 47.19 45.83 42.02 42.07 38.37 47.25 37.61 49.56 32.91 51.89 37.6 57.08 38.34 53.33 42.01 54.23 47.17" style="fill: #575756"/>
      <polygon points="91.07 47.17 86.42 44.74 81.79 47.19 82.67 42.02 78.91 38.37 84.09 37.61 86.41 32.91 88.73 37.6 93.92 38.34 90.17 42.01 91.07 47.17" style="fill: #575756"/>
    </g>
    <polygon points="36.21 46.15 31.86 43.87 27.51 46.16 28.33 41.32 24.81 37.89 29.67 37.18 31.84 32.77 34.02 37.17 38.89 37.87 35.37 41.31 36.21 46.15" style="fill: #f4e03e;stroke: #706f6f;stroke-miterlimit: 10;stroke-width: 0.179160999843014px"/>
    <polygon points="54.38 46.15 50.02 43.87 45.68 46.16 46.5 41.32 42.97 37.89 47.84 37.18 50 32.77 52.19 37.17 57.05 37.87 53.54 41.31 54.38 46.15" style="fill: #f4e03e;stroke: #706f6f;stroke-miterlimit: 10;stroke-width: 0.179160999843014px"/>
    <polygon points="72.54 46.15 68.19 43.87 63.84 46.16 64.66 41.32 61.14 37.89 66 37.18 68.17 32.77 70.35 37.17 75.22 37.87 71.7 41.31 72.54 46.15" style="fill: #f4e03e;stroke: #706f6f;stroke-miterlimit: 10;stroke-width: 0.179160999843014px"/>
    <polygon points="90.71 46.15 86.35 43.87 82.01 46.16 82.83 41.32 79.3 37.89 84.17 37.18 86.33 32.77 88.52 37.17 93.38 37.87 89.87 41.31 90.71 46.15" style="fill: #f4e03e;stroke: #706f6f;stroke-miterlimit: 10;stroke-width: 0.179160999843014px"/>
    <polygon points="108.87 46.15 104.52 43.87 100.17 46.16 100.99 41.32 97.47 37.89 102.33 37.18 104.5 32.77 106.68 37.17 111.55 37.87 108.03 41.31 108.87 46.15" style="fill: #f4e03e;stroke: #706f6f;stroke-miterlimit: 10;stroke-width: 0.179160999843014px"/>
  </g>
  <g id="Schatten-2" data-name="Schatten">
    <polygon points="109.55 47.04 104.9 44.61 100.27 47.05 101.15 41.89 97.39 38.24 102.57 37.47 104.88 32.77 107.21 37.47 112.4 38.21 108.65 41.88 109.55 47.04" style="fill: #575756"/>
    <polygon points="72.7 47.04 68.06 44.61 63.43 47.05 64.3 41.89 60.54 38.24 65.73 37.47 68.04 32.77 70.37 37.47 75.56 38.21 71.81 41.88 72.7 47.04" style="fill: #575756"/>
    <polygon points="35.86 47.04 31.22 44.61 26.58 47.05 27.46 41.89 23.7 38.24 28.89 37.47 31.2 32.77 33.52 37.47 38.71 38.21 34.97 41.88 35.86 47.04" style="fill: #575756"/>
    <polygon points="54.28 47.04 49.64 44.61 45 47.05 45.88 41.89 42.12 38.24 47.31 37.47 49.62 32.77 51.95 37.47 57.13 38.21 53.39 41.88 54.28 47.04" style="fill: #575756"/>
    <polygon points="91.13 47.04 86.48 44.61 81.85 47.05 82.72 41.89 78.97 38.24 84.15 37.47 86.46 32.77 88.79 37.47 93.98 38.21 90.23 41.88 91.13 47.04" style="fill: #575756"/>
  </g>
  <g id="_4_6" data-name="4,6">
    <polygon points="36.27 46.01 31.91 43.73 27.57 46.03 28.39 41.18 24.86 37.76 29.73 37.04 31.89 32.63 34.08 37.04 38.94 37.73 35.43 41.17 36.27 46.01" style="fill: #f4e03e;stroke: #706f6f;stroke-miterlimit: 10;stroke-width: 0.179160999843014px"/>
    <polygon points="54.43 46.01 50.08 43.73 45.73 46.03 46.55 41.18 43.03 37.76 47.89 37.04 50.06 32.63 52.24 37.04 57.11 37.73 53.59 41.17 54.43 46.01" style="fill: #f4e03e;stroke: #706f6f;stroke-miterlimit: 10;stroke-width: 0.179160999843014px"/>
    <polygon points="72.6 46.01 68.24 43.73 63.9 46.03 64.72 41.18 61.2 37.76 66.06 37.04 68.23 32.63 70.41 37.04 75.27 37.73 71.76 41.17 72.6 46.01" style="fill: #f4e03e;stroke: #706f6f;stroke-miterlimit: 10;stroke-width: 0.179160999843014px"/>
    <polygon points="90.76 46.01 86.41 43.73 82.06 46.03 82.89 41.18 79.36 37.76 84.22 37.04 86.39 32.63 88.57 37.04 93.44 37.73 89.92 41.17 90.76 46.01" style="fill: #f4e03e;stroke: #706f6f;stroke-miterlimit: 10;stroke-width: 0.179160999843014px"/>
    <polyline points="105.84 44.4 104.58 43.73 100.23 46.03 101.05 41.18 97.53 37.76 102.39 37.04 104.56 32.63 105.84 35.22" style="fill: #f4e03e;stroke: #706f6f;stroke-miterlimit: 10;stroke-width: 0.179160999843014px"/>
  </g>
  <g>
    <g>
      <path d="M20.85,20.88a2.59,2.59,0,0,1,1.58.54A1.61,1.61,0,0,1,23,22.74c0,1.76-1.17,2.64-3.53,2.64H15.72v-.94L16.85,24V17.8l-1.14-.43v-.92h4.22A3.18,3.18,0,0,1,22,17a2,2,0,0,1,.69,1.59,1.74,1.74,0,0,1-.48,1.24,2.62,2.62,0,0,1-1.37.69Zm-2.25-.62h.59a6.41,6.41,0,0,0,.73,0,1.31,1.31,0,0,0,.49-.22,1.19,1.19,0,0,0,.38-.46,1.47,1.47,0,0,0,.13-.64,1.94,1.94,0,0,0-.11-.68.92.92,0,0,0-.35-.45,1.13,1.13,0,0,0-.46-.2,5.35,5.35,0,0,0-.7,0h-.7Zm0,4h.76a4.77,4.77,0,0,0,.75,0,1.32,1.32,0,0,0,.52-.23A1.15,1.15,0,0,0,21,23.5a1.6,1.6,0,0,0,.15-.7,2,2,0,0,0-.12-.74,1,1,0,0,0-.37-.48,1.31,1.31,0,0,0-.49-.22,6.16,6.16,0,0,0-.75,0H18.6Z" transform="translate(-1.32 -0.83)" style="fill: #333f50"/>
      <path d="M28.24,25.38l-.07-1.09a2.31,2.31,0,0,1-.8.9,2,2,0,0,1-1.15.34A2.53,2.53,0,0,1,24.56,25a1.86,1.86,0,0,1-.65-1.51,2.11,2.11,0,0,1,.33-1.2,1.94,1.94,0,0,1,1-.74,4,4,0,0,1,1.5-.25l1.17,0V20.8a1.08,1.08,0,0,0-.24-.8,1.29,1.29,0,0,0-.89-.22,7.2,7.2,0,0,0-2,.38L24.37,19a7.74,7.74,0,0,1,2.68-.57,2.88,2.88,0,0,1,1.84.52,2.18,2.18,0,0,1,.66,1.81v3.35l1.13.43v.82Zm-.31-2.88v-.18h-.68a2.45,2.45,0,0,0-1.26.24.88.88,0,0,0-.37.8.79.79,0,0,0,.25.61,1.05,1.05,0,0,0,.72.23C27.48,24.19,27.93,23.62,27.93,22.5Z" transform="translate(-1.32 -0.83)" style="fill: #333f50"/>
      <path d="M38,20.92v3.21l1.12.43v.82H35.5v-.91l.78-.33V21c0-.56-.08-.92-.25-1.06a1,1,0,0,0-.7-.22,1.94,1.94,0,0,0-1.42.74v3.66l.8.33v.91H31.12v-.82l1.12-.43v-4L31,19.66v-1h2.67l.08,1a2.41,2.41,0,0,1,.9-.83,2.74,2.74,0,0,1,1.32-.31,2.05,2.05,0,0,1,1.37.39,1.64,1.64,0,0,1,.55.88A5.88,5.88,0,0,1,38,20.92Z" transform="translate(-1.32 -0.83)" style="fill: #333f50"/>
      <path d="M42.13,23v1.1l.9.32v.94H39.35v-.82l1.11-.43v-7l-1.27-.46v-1h2.94v6L44,19.78l-.78-.37v-.79h3.42v.9l-1.44.75-.54.47-.63.57L45.29,23c.4.53.61.81.64.83l1,.75v.81H45l-1.9-3.23Z" transform="translate(-1.32 -0.83)" style="fill: #333f50"/>
      <polygon points="46.16 24.56 46.16 23.73 47.28 23.3 47.28 19.29 46 18.84 46 17.79 48.95 17.79 48.95 23.3 50.07 23.73 50.07 24.56 46.16 24.56" style="fill: #333f50"/>
      <path d="M58.86,20.92v3.21l1.11.43v.82H56.4v-.91l.78-.33V21c0-.56-.09-.92-.26-1.06a1,1,0,0,0-.69-.22,1.94,1.94,0,0,0-1.42.74v3.66l.79.33v.91H52v-.82l1.12-.43v-4l-1.28-.46v-1h2.66l.09,1a2.34,2.34,0,0,1,.9-.83,2.72,2.72,0,0,1,1.31-.31,2,2,0,0,1,1.37.39,1.66,1.66,0,0,1,.56.88A5.88,5.88,0,0,1,58.86,20.92Z" transform="translate(-1.32 -0.83)" style="fill: #333f50"/>
      <path d="M67.3,18.6v1H66.1a2.22,2.22,0,0,1,.3,1.15,2.15,2.15,0,0,1-.74,1.74,3.06,3.06,0,0,1-2,.62l-.37,0a.82.82,0,0,0-.24.53c0,.31.2.46.61.46h1.29c1.48,0,2.22.63,2.22,1.9a2,2,0,0,1-1,1.78,4.8,4.8,0,0,1-2.59.62,5,5,0,0,1-2.51-.51,1.67,1.67,0,0,1-.87-1.53,1.65,1.65,0,0,1,.49-1.25,2.33,2.33,0,0,1,1.35-.58.92.92,0,0,1-.34-1.32,1.21,1.21,0,0,1,.39-.42,2,2,0,0,1-1.36-2,2.12,2.12,0,0,1,.75-1.75,3.2,3.2,0,0,1,2.08-.61l.42,0,.38.07.37.1Zm-4.14,6.78a1.68,1.68,0,0,0-.86.23.72.72,0,0,0-.38.67.8.8,0,0,0,.49.74,2.62,2.62,0,0,0,1.26.26A2.55,2.55,0,0,0,65,27a.94.94,0,0,0,.55-.87c0-.48-.31-.72-.94-.72Zm.42-3.26a1.09,1.09,0,0,0,.86-.32,1.53,1.53,0,0,0,.27-1,1.51,1.51,0,0,0-.27-1,1.13,1.13,0,0,0-.86-.31q-1.14,0-1.14,1.32T63.58,22.12Z" transform="translate(-1.32 -0.83)" style="fill: #333f50"/>
      <path d="M75.07,25.14a8.47,8.47,0,0,1-2.66.44,4.26,4.26,0,0,1-3.26-1.23A4.68,4.68,0,0,1,68,21a5,5,0,0,1,1.1-3.34,4.11,4.11,0,0,1,3.28-1.28,17.83,17.83,0,0,1,2.42.18V18.9H73.47l-.59-1.4h-.5a2.23,2.23,0,0,0-1.92,1,4.2,4.2,0,0,0-.69,2.5,3.52,3.52,0,0,0,.76,2.41,2.73,2.73,0,0,0,2.17.87,6.79,6.79,0,0,0,2-.32Z" transform="translate(-1.32 -0.83)" style="fill: #333f50"/>
      <path d="M78.69,24.12l.8.33v.93H75.91v-.82L77,24.13v-7l-1.28-.46v-1h2.92v3.69a2.56,2.56,0,0,1,2-.9,2.05,2.05,0,0,1,1.37.39,1.59,1.59,0,0,1,.55.88,5.25,5.25,0,0,1,.11,1.21v3.21l1.12.43v.82H80.29v-.91l.78-.33V21c0-.56-.08-.92-.26-1.06a1,1,0,0,0-.69-.22,1.94,1.94,0,0,0-1.43.74Z" transform="translate(-1.32 -0.83)" style="fill: #333f50"/>
      <path d="M86.15,22.14a2,2,0,0,0,.55,1.5,2.21,2.21,0,0,0,1.58.52A6.76,6.76,0,0,0,90,23.93l.31,1.26a7.38,7.38,0,0,1-2.34.35,3.6,3.6,0,0,1-2.62-.93,3.45,3.45,0,0,1-1-2.57,3.74,3.74,0,0,1,.88-2.68,3.07,3.07,0,0,1,2.34-.91,3.42,3.42,0,0,1,1.49.28,2.08,2.08,0,0,1,.89.79,2.89,2.89,0,0,1,.4,1.08,10.32,10.32,0,0,1,.09,1.54ZM88.73,21q-.11-1.5-1.17-1.5T86.21,21Z" transform="translate(-1.32 -0.83)" style="fill: #333f50"/>
      <path d="M96,20.91l-.38-1.29-.32,0a1.75,1.75,0,0,0-1.31.58,2.43,2.43,0,0,0-.55,1.73A2.38,2.38,0,0,0,94,23.59a2.09,2.09,0,0,0,1.61.6A8.23,8.23,0,0,0,97.2,24l.3,1.22a6.67,6.67,0,0,1-2.17.34,3.47,3.47,0,0,1-2.71-1,3.42,3.42,0,0,1-.91-2.42,3.83,3.83,0,0,1,.92-2.72,3.51,3.51,0,0,1,2.66-1,14.33,14.33,0,0,1,1.91.14v2.32Z" transform="translate(-1.32 -0.83)" style="fill: #333f50"/>
      <path d="M101.15,23v1.1l.91.32v.94H98.37v-.82l1.12-.43v-7l-1.28-.46v-1h2.94v6L103,19.78l-.78-.37v-.79h3.42v.9l-1.44.75s-.22.18-.54.47l-.64.57L104.32,23c.39.53.61.81.64.83l1,.75v.81H104l-1.9-3.23Z" transform="translate(-1.32 -0.83)" style="fill: #333f50"/>
      <path d="M56.22,8.14l.25.35A19.21,19.21,0,0,0,53.11,12a24.22,24.22,0,0,0-2.82,4.47l-.52.36a9.19,9.19,0,0,0-.88.67c-.06-.22-.2-.59-.4-1.1l-.2-.46a7.11,7.11,0,0,0-.79-1.48,1.7,1.7,0,0,0-.81-.63,2,2,0,0,1,1.39-.82c.37,0,.77.5,1.21,1.49l.22.5a20.52,20.52,0,0,1,3.06-3.95A17.12,17.12,0,0,1,56.22,8.14Z" transform="translate(-1.32 -0.83)" style="fill: #333f50"/>
    </g>
    <g>
      <path d="M106.83,25.52V23.64h2v1.88Z" transform="translate(-1.32 -0.83)" style="fill: #333f50"/>
      <path d="M116.28,16.18v8.15l1.09.41v.8h-2.3L115,24.47a2.15,2.15,0,0,1-.75.86,1.86,1.86,0,0,1-1.1.34,2.49,2.49,0,0,1-2-.86,3.32,3.32,0,0,1-.72-2.21,4,4,0,0,1,.88-2.81,3.16,3.16,0,0,1,2.4-.94l1.07,0V17.61l-1.23-.44v-1Zm-1.55,5.72V20.05c-.35,0-.59,0-.72,0-1.29,0-1.93.79-1.93,2.39a2.6,2.6,0,0,0,.34,1.44,1.16,1.16,0,0,0,2,0A4,4,0,0,0,114.73,21.9Z" transform="translate(-1.32 -0.83)" style="fill: #333f50"/>
      <path d="M119.69,22.41a1.89,1.89,0,0,0,.54,1.44,2.19,2.19,0,0,0,1.54.5,6.73,6.73,0,0,0,1.67-.22l.3,1.2a6.94,6.94,0,0,1-2.27.35,3.47,3.47,0,0,1-2.54-.9,3.26,3.26,0,0,1-.93-2.46,3.58,3.58,0,0,1,.85-2.58,3,3,0,0,1,2.28-.88,3.33,3.33,0,0,1,1.44.27,2.12,2.12,0,0,1,.88.76,2.86,2.86,0,0,1,.39,1,11.27,11.27,0,0,1,.08,1.48Zm2.51-1.08q-.09-1.44-1.14-1.44c-.72,0-1.16.48-1.31,1.44Z" transform="translate(-1.32 -0.83)" style="fill: #333f50"/>
    </g>
  </g>
</svg>